HIERARCHY
ROOT Hips
{
	OFFSET 0.000000 0.000000 0.000000
	CHANNELS 6 Xposition Yposition Zposition Xrotation Yrotation Zrotation
	JOINT Thigh.L
	{
		OFFSET 0.054766 0.030617 -0.092315
		CHANNELS 3 Xrotation Yrotation Zrotation
		JOINT Shin.L
		{
			OFFSET 0.053323 0.015523 -0.412023
			CHANNELS 3 Xrotation Yrotation Zrotation
			JOINT Foot.L
			{
				OFFSET -0.041726 0.033170 -0.433506
				CHANNELS 3 Xrotation Yrotation Zrotation
				JOINT Toe.L
				{
					OFFSET 0.044945 -0.119666 -0.063945
					CHANNELS 3 Xrotation Yrotation Zrotation
					End Site
					{
						OFFSET 0.000000 0.050000 0.000000
					}
				}
			}
		}
	}
	JOINT Thigh.R
	{
		OFFSET -0.060072 0.027820 -0.102736
		CHANNELS 3 Xrotation Yrotation Zrotation
		JOINT Shin.R
		{
			OFFSET -0.042679 0.021094 -0.395690
			CHANNELS 3 Xrotation Yrotation Zrotation
			JOINT Foot.R
			{
				OFFSET 0.015624 0.021586 -0.442429
				CHANNELS 3 Xrotation Yrotation Zrotation
				JOINT Toe.R
				{
					OFFSET -0.037222 -0.120438 -0.063868
					CHANNELS 3 Xrotation Yrotation Zrotation
					End Site
					{
						OFFSET 0.000000 0.050000 0.000000
					}
				}
			}
		}
	}
	JOINT Spine
	{
		OFFSET -0.002136 0.020037 0.109974
		CHANNELS 3 Xrotation Yrotation Zrotation
		JOINT Spine.2
		{
			OFFSET 0.006947 0.003092 0.134773
			CHANNELS 3 Xrotation Yrotation Zrotation
			JOINT Chest
			{
				OFFSET -0.010508 -0.023721 0.049501
				CHANNELS 3 Xrotation Yrotation Zrotation
				JOINT Neck
				{
					OFFSET -0.009599 0.029591 0.163883
					CHANNELS 3 Xrotation Yrotation Zrotation
					JOINT Head
					{
						OFFSET 0.022481 -0.021811 0.164011
						CHANNELS 3 Xrotation Yrotation Zrotation
						End Site
						{
							OFFSET 0.000000 0.050000 0.000000
						}
					}
				}
				JOINT Clavicle.L
				{
					OFFSET 0.043512 0.008466 0.083803
					CHANNELS 3 Xrotation Yrotation Zrotation
					JOINT UpperArm.L
					{
						OFFSET 0.107058 0.015003 0.062057
						CHANNELS 3 Xrotation Yrotation Zrotation
						JOINT ForeArm.L
						{
							OFFSET 0.264743 0.035595 -0.075740
							CHANNELS 3 Xrotation Yrotation Zrotation
							JOINT Hand.L
							{
								OFFSET 0.264182 0.006129 0.021599
								CHANNELS 3 Xrotation Yrotation Zrotation
								JOINT Thumb1.L
								{
									OFFSET 0.154569 0.002774 0.009776
									CHANNELS 3 Xrotation Yrotation Zrotation
									JOINT Thumb2.L
									{
										OFFSET 0.029892 0.000694 0.002444
										CHANNELS 3 Xrotation Yrotation Zrotation
										End Site
										{
											OFFSET 0.024910 0.000578 0.002037
										}
									}
								}
								JOINT Index1.L
								{
									OFFSET 0.137569 0.002774 0.009776
									CHANNELS 3 Xrotation Yrotation Zrotation
									JOINT Index2.L
									{
										OFFSET 0.029892 0.000694 0.002444
										CHANNELS 3 Xrotation Yrotation Zrotation
										JOINT Index3.L
										{
											OFFSET 0.021921 0.000509 0.001792
											CHANNELS 3 Xrotation Yrotation Zrotation
											End Site
											{
												OFFSET 0.017935 0.000416 0.001466
											}
										}
									}
								}
								JOINT Middle1.L
								{
									OFFSET 0.119569 0.002774 0.009776
									CHANNELS 3 Xrotation Yrotation Zrotation
									JOINT Middle2.L
									{
										OFFSET 0.030889 0.000717 0.002525
										CHANNELS 3 Xrotation Yrotation Zrotation
										JOINT Middle3.L
										{
											OFFSET 0.021921 0.000509 0.001792
											CHANNELS 3 Xrotation Yrotation Zrotation
											End Site
											{
												OFFSET 0.017935 0.000416 0.001466
											}
										}
									}
								}
								JOINT Ring1.L
								{
									OFFSET 0.101569 0.002774 0.009776
									CHANNELS 3 Xrotation Yrotation Zrotation
									JOINT Ring2.L
									{
										OFFSET 0.028896 0.000670 0.002362
										CHANNELS 3 Xrotation Yrotation Zrotation
										JOINT Ring3.L
										{
											OFFSET 0.019928 0.000462 0.001629
											CHANNELS 3 Xrotation Yrotation Zrotation
											End Site
											{
												OFFSET 0.016939 0.000393 0.001385
											}
										}
									}
								}
								JOINT Pinky1.L
								{
									OFFSET 0.085569 0.002774 0.009776
									CHANNELS 3 Xrotation Yrotation Zrotation
									JOINT Pinky2.L
									{
										OFFSET 0.023914 0.000555 0.001955
										CHANNELS 3 Xrotation Yrotation Zrotation
										JOINT Pinky3.L
										{
											OFFSET 0.016939 0.000393 0.001385
											CHANNELS 3 Xrotation Yrotation Zrotation
											End Site
											{
												OFFSET 0.013950 0.000324 0.001141
											}
										}
									}
								}
							}
						}
					}
				}
				JOINT Clavicle.R
				{
					OFFSET -0.041742 0.014586 0.083324
					CHANNELS 3 Xrotation Yrotation Zrotation
					JOINT UpperArm.R
					{
						OFFSET -0.092393 0.010026 0.057526
						CHANNELS 3 Xrotation Yrotation Zrotation
						JOINT ForeArm.R
						{
							OFFSET -0.280898 0.022750 -0.042667
							CHANNELS 3 Xrotation Yrotation Zrotation
							JOINT Hand.R
							{
								OFFSET -0.260900 0.018756 -0.003298
								CHANNELS 3 Xrotation Yrotation Zrotation
								JOINT Thumb1.R
								{
									OFFSET -0.154682 0.008604 -0.001513
									CHANNELS 3 Xrotation Yrotation Zrotation
									JOINT Thumb2.R
									{
										OFFSET -0.029920 0.002151 -0.000378
										CHANNELS 3 Xrotation Yrotation Zrotation
										End Site
										{
											OFFSET -0.024934 0.001793 -0.000315
										}
									}
								}
								JOINT Index1.R
								{
									OFFSET -0.137682 0.008604 -0.001513
									CHANNELS 3 Xrotation Yrotation Zrotation
									JOINT Index2.R
									{
										OFFSET -0.029920 0.002151 -0.000378
										CHANNELS 3 Xrotation Yrotation Zrotation
										JOINT Index3.R
										{
											OFFSET -0.021942 0.001577 -0.000277
											CHANNELS 3 Xrotation Yrotation Zrotation
											End Site
											{
												OFFSET -0.017952 0.001291 -0.000227
											}
										}
									}
								}
								JOINT Middle1.R
								{
									OFFSET -0.119682 0.008604 -0.001513
									CHANNELS 3 Xrotation Yrotation Zrotation
									JOINT Middle2.R
									{
										OFFSET -0.030918 0.002223 -0.000391
										CHANNELS 3 Xrotation Yrotation Zrotation
										JOINT Middle3.R
										{
											OFFSET -0.021942 0.001577 -0.000277
											CHANNELS 3 Xrotation Yrotation Zrotation
											End Site
											{
												OFFSET -0.017952 0.001291 -0.000227
											}
										}
									}
								}
								JOINT Ring1.R
								{
									OFFSET -0.101682 0.008604 -0.001513
									CHANNELS 3 Xrotation Yrotation Zrotation
									JOINT Ring2.R
									{
										OFFSET -0.028923 0.002079 -0.000366
										CHANNELS 3 Xrotation Yrotation Zrotation
										JOINT Ring3.R
										{
											OFFSET -0.019947 0.001434 -0.000252
											CHANNELS 3 Xrotation Yrotation Zrotation
											End Site
											{
												OFFSET -0.016955 0.001219 -0.000214
											}
										}
									}
								}
								JOINT Pinky1.R
								{
									OFFSET -0.085682 0.008604 -0.001513
									CHANNELS 3 Xrotation Yrotation Zrotation
									JOINT Pinky2.R
									{
										OFFSET -0.023936 0.001721 -0.000303
										CHANNELS 3 Xrotation Yrotation Zrotation
										JOINT Pinky3.R
										{
											OFFSET -0.016955 0.001219 -0.000214
											CHANNELS 3 Xrotation Yrotation Zrotation
											End Site
											{
												OFFSET -0.013963 0.001004 -0.000177
											}
										}
									}
								}
							}
						}
					}
				}
			}
		}
	}
}
MOTION
Frames: 6
Frame Time: 0.04166667
-0.016216 0.699069 1.023086 -4.036742 -1.684529 -4.545622 -16.526656 8.049164 -5.650181 19.836070 4.006838 -2.326444 -4.294370 -3.772134 13.719347 -0.192867 -7.700904 -0.201434 2.143865 3.205804 1.459112 49.834103 2.126904 7.086867 4.703368 -6.098092 -1.733825 0.586436 -5.451513 -1.237869 6.736193 1.934812 5.746398 4.110234 -0.516722 -0.115881 -2.482547 5.736988 1.655605 8.737496 -2.357535 6.937925 15.329133 2.464296 1.618832 5.291866 23.028897 5.250273 12.494960 46.025663 -11.540863 14.286249 0.208236 -14.164227 3.477600 2.020489 -6.821724 0.000000 0.000000 0.000000 0.000000 0.000000 0.000000 0.000000 0.000000 0.000000 0.000000 0.000000 0.000000 0.000000 0.000000 0.000000 0.000000 0.000000 0.000000 0.000000 0.000000 0.000000 0.000000 0.000000 0.000000 0.000000 0.000000 0.000000 0.000000 0.000000 0.000000 0.000000 0.000000 0.000000 0.000000 0.000000 0.000000 0.000000 0.000000 0.000000 0.000000 0.000000 0.000000 -1.205909 -13.129540 1.561697 33.384943 -52.101149 35.260746 6.488368 4.003600 33.731672 -9.041635 2.401414 5.601390 0.000000 0.000000 0.000000 0.000000 0.000000 0.000000 0.000000 0.000000 0.000000 0.000000 0.000000 0.000000 0.000000 0.000000 0.000000 0.000000 0.000000 0.000000 0.000000 0.000000 0.000000 0.000000 0.000000 0.000000 0.000000 0.000000 0.000000 0.000000 0.000000 0.000000 0.000000 0.000000 0.000000 0.000000 0.000000 0.000000 0.000000 0.000000 0.000000 0.000000 0.000000 0.000000
-0.012821 0.715681 1.029688 -5.348236 -2.505195 -3.432233 -11.849626 9.108170 -5.413246 18.871632 3.377463 -4.635453 -6.232787 -4.651028 13.888305 -0.305043 -8.113044 -0.210287 -4.217592 3.116938 2.434655 56.563325 1.793477 5.573849 3.384298 -4.451799 -3.628169 0.747209 -5.366419 -1.153400 7.103514 2.346467 4.142607 3.714454 -0.966213 -0.664757 -2.145692 6.256559 1.404364 8.973067 -1.669494 7.413353 15.062241 2.745138 2.465369 5.185365 22.278764 3.809290 13.356568 46.161885 -14.879624 14.437008 -0.042007 -14.518029 3.929939 1.162772 -6.916284 0.000000 0.000000 0.000000 0.000000 0.000000 0.000000 0.000000 0.000000 0.000000 0.000000 0.000000 0.000000 0.000000 0.000000 0.000000 0.000000 0.000000 0.000000 0.000000 0.000000 0.000000 0.000000 0.000000 0.000000 0.000000 0.000000 0.000000 0.000000 0.000000 0.000000 0.000000 0.000000 0.000000 0.000000 0.000000 0.000000 0.000000 0.000000 0.000000 0.000000 0.000000 0.000000 -0.733384 -13.846799 1.428578 34.928158 -52.873504 35.041491 7.106140 3.286539 31.740926 -7.728620 1.848760 5.365693 0.000000 0.000000 0.000000 0.000000 0.000000 0.000000 0.000000 0.000000 0.000000 0.000000 0.000000 0.000000 0.000000 0.000000 0.000000 0.000000 0.000000 0.000000 0.000000 0.000000 0.000000 0.000000 0.000000 0.000000 0.000000 0.000000 0.000000 0.000000 0.000000 0.000000 0.000000 0.000000 0.000000 0.000000 0.000000 0.000000 0.000000 0.000000 0.000000 0.000000 0.000000 0.000000
-0.013054 0.727795 1.038234 -7.036572 -2.493076 -2.010787 -5.625961 9.371332 -4.652956 15.661980 2.015101 -7.434867 -8.404225 -4.382996 13.350413 -0.062380 -8.470777 -0.102015 -10.539137 2.218373 3.486072 60.193312 0.676914 4.053362 -0.297400 -2.283177 -5.827646 1.004001 -5.026574 -1.096856 7.936856 2.437357 2.316032 3.646718 -1.828027 -1.531204 -2.212018 6.384927 1.064535 9.032607 -0.947115 7.726018 15.187902 3.325339 2.996248 5.140539 21.664982 2.374047 13.954662 46.443951 -18.367574 14.783139 -0.520614 -15.355636 4.657239 0.257315 -6.971645 0.000000 0.000000 0.000000 0.000000 0.000000 0.000000 0.000000 0.000000 0.000000 0.000000 0.000000 0.000000 0.000000 0.000000 0.000000 0.000000 0.000000 0.000000 0.000000 0.000000 0.000000 0.000000 0.000000 0.000000 0.000000 0.000000 0.000000 0.000000 0.000000 0.000000 0.000000 0.000000 0.000000 0.000000 0.000000 0.000000 0.000000 0.000000 0.000000 0.000000 0.000000 0.000000 -0.184484 -14.768971 1.322396 35.224301 -53.318686 33.854218 7.881723 2.469269 29.282373 -6.462840 0.835838 5.281330 0.000000 0.000000 0.000000 0.000000 0.000000 0.000000 0.000000 0.000000 0.000000 0.000000 0.000000 0.000000 0.000000 0.000000 0.000000 0.000000 0.000000 0.000000 0.000000 0.000000 0.000000 0.000000 0.000000 0.000000 0.000000 0.000000 0.000000 0.000000 0.000000 0.000000 0.000000 0.000000 0.000000 0.000000 0.000000 0.000000 0.000000 0.000000 0.000000 0.000000 0.000000 0.000000
-0.015839 0.740804 1.045890 -8.174369 -1.917190 -0.440932 0.713437 8.719711 -3.890488 11.265863 0.708593 -10.803676 -9.918923 -3.357275 12.883163 0.320502 -8.467738 -0.028078 -15.808587 1.103510 4.337919 59.334390 -0.825801 2.549077 -3.477013 -1.407126 -7.256809 1.201774 -4.528170 -1.086936 8.883381 1.961626 0.553606 3.525587 -2.617219 -2.251565 -2.347823 5.932020 0.675791 8.637832 0.132529 7.729654 15.014207 3.647306 3.709626 4.779774 20.747890 1.231887 15.000749 47.256683 -22.435125 14.601330 -1.446980 -16.564431 4.809844 -1.133247 -7.585172 0.000000 0.000000 0.000000 0.000000 0.000000 0.000000 0.000000 0.000000 0.000000 0.000000 0.000000 0.000000 0.000000 0.000000 0.000000 0.000000 0.000000 0.000000 0.000000 0.000000 0.000000 0.000000 0.000000 0.000000 0.000000 0.000000 0.000000 0.000000 0.000000 0.000000 0.000000 0.000000 0.000000 0.000000 0.000000 0.000000 0.000000 0.000000 0.000000 0.000000 0.000000 0.000000 0.224166 -15.163035 0.966949 34.813635 -53.522885 32.046724 9.183990 1.816553 27.012615 -5.397311 0.142062 5.585127 0.000000 0.000000 0.000000 0.000000 0.000000 0.000000 0.000000 0.000000 0.000000 0.000000 0.000000 0.000000 0.000000 0.000000 0.000000 0.000000 0.000000 0.000000 0.000000 0.000000 0.000000 0.000000 0.000000 0.000000 0.000000 0.000000 0.000000 0.000000 0.000000 0.000000 0.000000 0.000000 0.000000 0.000000 0.000000 0.000000 0.000000 0.000000 0.000000 0.000000 0.000000 0.000000
-0.017568 0.756673 1.050373 -8.727781 -1.408867 0.925240 6.223619 7.901155 -2.987773 7.512792 -0.218889 -13.406068 -11.150522 -2.456251 12.561462 0.813121 -8.092026 0.065242 -19.766539 0.227441 4.901295 54.812640 -1.901531 0.725465 -5.237378 -1.560579 -8.495904 1.377542 -3.811971 -0.994395 9.911047 1.373237 -0.958964 3.395709 -3.219320 -2.780656 -2.562980 5.363594 0.336553 8.080394 1.054870 7.552178 14.862595 3.657835 4.537688 4.378569 19.769646 0.358028 15.960159 47.652968 -26.242954 13.979568 -2.209931 -18.393572 4.717116 -2.341584 -8.283432 0.000000 0.000000 0.000000 0.000000 0.000000 0.000000 0.000000 0.000000 0.000000 0.000000 0.000000 0.000000 0.000000 0.000000 0.000000 0.000000 0.000000 0.000000 0.000000 0.000000 0.000000 0.000000 0.000000 0.000000 0.000000 0.000000 0.000000 0.000000 0.000000 0.000000 0.000000 0.000000 0.000000 0.000000 0.000000 0.000000 0.000000 0.000000 0.000000 0.000000 0.000000 0.000000 0.717208 -15.356467 0.589563 34.358278 -53.349784 30.305575 9.900596 1.118484 25.162500 -4.167955 -0.025868 5.890973 0.000000 0.000000 0.000000 0.000000 0.000000 0.000000 0.000000 0.000000 0.000000 0.000000 0.000000 0.000000 0.000000 0.000000 0.000000 0.000000 0.000000 0.000000 0.000000 0.000000 0.000000 0.000000 0.000000 0.000000 0.000000 0.000000 0.000000 0.000000 0.000000 0.000000 0.000000 0.000000 0.000000 0.000000 0.000000 0.000000 0.000000 0.000000 0.000000 0.000000 0.000000 0.000000
-0.020429 0.775169 1.050313 -8.910654 -0.701786 2.241120 10.255370 6.959104 -2.217748 5.902226 -1.079449 -15.311781 -12.961518 -2.126405 12.269095 1.189738 -7.568465 0.105736 -22.516590 -0.547311 5.295668 47.178740 -2.468853 -1.215435 -5.900117 -2.604082 -9.538719 1.577072 -2.878435 -0.808656 10.623941 0.885675 -2.105527 3.595808 -3.890965 -3.414206 -3.234652 4.795079 0.077913 7.640470 1.740554 7.206741 14.510727 3.280243 5.444811 4.328989 18.903797 -0.661053 16.337824 47.619077 -29.737163 12.823020 -2.710890 -20.487790 4.591000 -3.400904 -8.883949 0.000000 0.000000 0.000000 0.000000 0.000000 0.000000 0.000000 0.000000 0.000000 0.000000 0.000000 0.000000 0.000000 0.000000 0.000000 0.000000 0.000000 0.000000 0.000000 0.000000 0.000000 0.000000 0.000000 0.000000 0.000000 0.000000 0.000000 0.000000 0.000000 0.000000 0.000000 0.000000 0.000000 0.000000 0.000000 0.000000 0.000000 0.000000 0.000000 0.000000 0.000000 0.000000 1.798750 -15.669443 0.047700 33.406344 -52.890421 27.986747 9.991211 0.483546 24.009148 -2.902420 -0.612303 6.066816 0.000000 0.000000 0.000000 0.000000 0.000000 0.000000 0.000000 0.000000 0.000000 0.000000 0.000000 0.000000 0.000000 0.000000 0.000000 0.000000 0.000000 0.000000 0.000000 0.000000 0.000000 0.000000 0.000000 0.000000 0.000000 0.000000 0.000000 0.000000 0.000000 0.000000 0.000000 0.000000 0.000000 0.000000 0.000000 0.000000 0.000000 0.000000 0.000000 0.000000 0.000000 0.000000
